<svg width="33" height="33" viewBox="0 0 33 33" fill="none" xmlns="http://www.w3.org/2000/svg">
<path d="M16.5 32.625C12.7375 32.625 9.40799 31.4831 6.51146 29.1993C3.61493 26.9156 1.73368 23.9963 0.867709 20.4417C0.748264 19.9938 0.837847 19.5835 1.13646 19.2108C1.43507 18.8381 1.83819 18.6213 2.34583 18.5604C2.82361 18.5007 3.2566 18.5903 3.64479 18.8292C4.03299 19.0681 4.30174 19.4264 4.45104 19.9042C5.16771 22.5917 6.64583 24.7865 8.88542 26.4885C11.125 28.1906 13.6632 29.0417 16.5 29.0417C19.9938 29.0417 22.9578 27.8251 25.392 25.392C27.8263 22.959 29.0429 19.9949 29.0417 16.5C29.0405 13.0051 27.8239 10.0416 25.392 7.60975C22.9602 5.17786 19.9961 3.96072 16.5 3.95833C14.4396 3.95833 12.5135 4.43611 10.7219 5.39167C8.93021 6.34722 7.42222 7.66111 6.19792 9.33333H9.33333C9.84097 9.33333 10.2668 9.50533 10.6108 9.84933C10.9548 10.1933 11.1262 10.6186 11.125 11.125C11.1238 11.6314 10.9518 12.0573 10.609 12.4025C10.2662 12.7477 9.84097 12.9191 9.33333 12.9167H2.16667C1.65903 12.9167 1.23381 12.7447 0.891 12.4007C0.548195 12.0567 0.376194 11.6314 0.375 11.125V3.95833C0.375 3.45069 0.547 3.02547 0.891 2.68267C1.235 2.33986 1.66022 2.16786 2.16667 2.16667C2.67311 2.16547 3.09893 2.33747 3.44412 2.68267C3.78932 3.02786 3.96072 3.45308 3.95833 3.95833V6.37708C5.48125 4.46597 7.3404 2.98785 9.53579 1.94271C11.7312 0.897569 14.0526 0.375 16.5 0.375C18.7396 0.375 20.8376 0.80082 22.7941 1.65246C24.7506 2.5041 26.4527 3.65315 27.9004 5.09963C29.348 6.5461 30.4977 8.24818 31.3493 10.2059C32.201 12.1636 32.6262 14.2616 32.625 16.5C32.6238 18.7384 32.1986 20.8364 31.3493 22.7941C30.5001 24.7518 29.3504 26.4539 27.9004 27.9004C26.4503 29.3468 24.7482 30.4965 22.7941 31.3493C20.84 32.2022 18.742 32.6274 16.5 32.625ZM18.2917 15.7833L22.7708 20.2625C23.0993 20.591 23.2635 21.009 23.2635 21.5167C23.2635 22.0243 23.0993 22.4424 22.7708 22.7708C22.4424 23.0993 22.0243 23.2635 21.5167 23.2635C21.009 23.2635 20.591 23.0993 20.2625 22.7708L15.2458 17.7542C15.0667 17.575 14.9323 17.3737 14.8427 17.1504C14.7531 16.927 14.7083 16.6953 14.7083 16.4552V9.33333C14.7083 8.8257 14.8803 8.40047 15.2243 8.05767C15.5683 7.71486 15.9936 7.54286 16.5 7.54167C17.0064 7.54047 17.4323 7.71247 17.7775 8.05767C18.1227 8.40286 18.2941 8.82808 18.2917 9.33333V15.7833Z" fill="#6E5AE2"/>
</svg>
