<svg width="41" height="39" viewBox="0 0 41 39" fill="none" xmlns="http://www.w3.org/2000/svg">
<path d="M1.9475 10.7107H39.0525V36.0922H41V2.90786H39.0525V8.76317H1.9475V2.90786H0V36.0922H1.9475V10.7107ZM1.9475 36.0922H39.0525V38.0525H1.9475V36.0922Z" fill="#6E5AE2"/>
<path d="M5.85532 14.6184V32.1972H35.1447V14.6184H5.85532ZM17.5659 24.3816H15.6184V26.3291H13.6709V28.2894H11.7106V26.3291H13.6709V24.3816H15.6184V22.4341H13.6709V20.4738H11.7106V18.5263H13.6709V20.4738H15.6184V22.4341H17.5659V24.3816ZM29.2894 24.3816H21.4738V22.4341H29.2894V24.3816ZM11.7106 4.85532H13.6709V6.81563H11.7106V4.85532ZM7.81563 4.85532H9.76313V6.81563H7.81563V4.85532ZM3.90782 4.85532H5.85532V6.81563H3.90782V4.85532ZM1.94751 0.94751H39.0525L39.0525 2.90786H1.9475L1.94751 0.94751Z" fill="#6E5AE2"/>
</svg>
